HIERARCHY
ROOT root
{
	OFFSET	0	13.1	24.9
	CHANNELS 6  Xposition Yposition Zposition Xrotation Yrotation Zrotation
	JOINT spine_1
	{
		OFFSET	0	9.99999	0
		CHANNELS 3  Xrotation Yrotation Zrotation
		JOINT spine_2
		{
			OFFSET	0	112	-10
			CHANNELS 3  Xrotation Yrotation Zrotation
			JOINT spine_3
			{
				OFFSET	0	206.5	19.3
				CHANNELS 3  Xrotation Yrotation Zrotation
				JOINT spine_4
				{
					OFFSET	0	110.4	14.6
					CHANNELS 3  Xrotation Yrotation Zrotation
					JOINT neck_1
					{
						OFFSET	0	71.8	-50.3
						CHANNELS 3  Xrotation Yrotation Zrotation
						JOINT neck_2
						{
							OFFSET	0	86.2	-25.8
							CHANNELS 3  Xrotation Yrotation Zrotation
							JOINT head_ee
							{
								OFFSET	0	179.8	-8.7
								CHANNELS 3  Xrotation Yrotation Zrotation
								End Site
								{
									OFFSET	1	0	0
								}
							}
						}
					}
					JOINT left_clavicle
					{
						OFFSET	-43.2	22.4	-70.8
						CHANNELS 3  Xrotation Yrotation Zrotation
						JOINT left_shoulder
						{
							OFFSET	-93.9	-5.79999	48.7
							CHANNELS 3  Xrotation Yrotation Zrotation
							JOINT left_elbow
							{
								OFFSET	-291.4	-30.8	15.2
								CHANNELS 3  Xrotation Yrotation Zrotation
								JOINT left_lowarm_twist
								{
									OFFSET	-110.7	-3.89999	13.6
									CHANNELS 3  Xrotation Yrotation Zrotation
									JOINT left_hand
									{
										OFFSET	-110.7	-3.89999	13.6
										CHANNELS 3  Xrotation Yrotation Zrotation
										JOINT left_ee
										{
											OFFSET	-80.8	-5.10001	12.1
											CHANNELS 3  Xrotation Yrotation Zrotation
											End Site
											{
												OFFSET	1	0	0
											}
										}
									}
								}
							}
						}
					}
					JOINT right_clavicle
					{
						OFFSET	43.2	22.4	-70.8
						CHANNELS 3  Xrotation Yrotation Zrotation
						JOINT right_shoulder
						{
							OFFSET	93.9	-5.79999	48.7
							CHANNELS 3  Xrotation Yrotation Zrotation
							JOINT right_elbow
							{
								OFFSET	291.4	-30.8	15.2
								CHANNELS 3  Xrotation Yrotation Zrotation
								JOINT right_lowarm_twist
								{
									OFFSET	110.7	-3.89999	13.6
									CHANNELS 3  Xrotation Yrotation Zrotation
									JOINT right_hand
									{
										OFFSET	110.7	-3.89999	13.6
										CHANNELS 3  Xrotation Yrotation Zrotation
										JOINT right_ee
										{
											OFFSET	80.8	-5.10001	12.1
											CHANNELS 3  Xrotation Yrotation Zrotation
											End Site
											{
												OFFSET	1	0	0
											}
										}
									}
								}
							}
						}
					}
				}
			}
		}
	}
	JOINT left_hip
	{
		OFFSET	-82.8	-127.5	0.300001
		CHANNELS 3  Xrotation Yrotation Zrotation
		JOINT left_knee
		{
			OFFSET	-28.2	-396.7	2.2
			CHANNELS 3  Xrotation Yrotation Zrotation
			JOINT left_ankle
			{
				OFFSET	-11.7	-411.3	35.4
				CHANNELS 3  Xrotation Yrotation Zrotation
				JOINT left_toes
				{
					OFFSET	0	-60	-88.6
					CHANNELS 3  Xrotation Yrotation Zrotation
					JOINT left_foot_ee
					{
						OFFSET	-22.5	-16.5	-42.2
						CHANNELS 3  Xrotation Yrotation Zrotation
						End Site
						{
							OFFSET	1	0	0
						}
					}
				}
			}
		}
	}
	JOINT right_hip
	{
		OFFSET	82.8	-127.5	0.300001
		CHANNELS 3  Xrotation Yrotation Zrotation
		JOINT right_knee
		{
			OFFSET	28.2	-396.7	2.2
			CHANNELS 3  Xrotation Yrotation Zrotation
			JOINT right_ankle
			{
				OFFSET	11.7	-411.3	35.4
				CHANNELS 3  Xrotation Yrotation Zrotation
				JOINT right_toes
				{
					OFFSET	0	-60	-88.6
					CHANNELS 3  Xrotation Yrotation Zrotation
					JOINT right_foot_ee
					{
						OFFSET	22.5	-16.5	-42.2
						CHANNELS 3  Xrotation Yrotation Zrotation
						End Site
						{
							OFFSET	1	0	0
						}
					}
				}
			}
		}
	}
}
MOTION
Frames: 6
Frame Time: 0.02
3381.17 718.9 -1525.18 5.85303 61.0614 -7.95551 -1.27901 0.385526 0.149512 -1.27907 0.375231 0.173742 -1.27794 0.324707 0.256027 -1.27785 0.361067 0.201532 -29.2947 19.7093 13.0577 -31.9725 33.219 24.6161 -0.0 0.0 -0.0 3.22392 21.7338 7.11264 -22.4933 -3.04289 69.8485 1.42684 -35.2511 0.453342 -13.5869 -0.671691 1.59807 -0.908391 12.3284 -0.65929 -0.0 0.0 -0.0 13.9022 26.0462 -27.7685 -2.61432 11.9236 -57.543 0.60897 16.7869 -0.0898547 63.9273 2.13577 7.45804 1.38626 -29.2179 -19.1829 0.0 0.0 0.0 7.71511 22.8009 -7.2902 -42.121 -0.607188 6.29262 38.9938 -0.270816 -4.79042 7.62584 -0.0 -0.0 -0.0 0.0 -0.0 1.1211 -13.7306 5.01827 -12.1481 -0.306557 -1.83562 38.344 29.0354 5.68667 -13.4775 0.0 0.0 0.0 0.0 0.0 
3373.36 720.048 -1527.47 6.29103 60.4202 -8.30046 -1.40512 0.394529 0.0294941 -1.4052 0.391853 0.0545396 -1.40488 0.3682 0.144749 -1.4047 0.386439 0.0847809 -28.9506 19.76 13.2681 -31.5478 33.2055 24.6765 -0.0 0.0 -0.0 2.77667 22.3541 6.49181 -24.1459 -1.48951 71.4814 1.37903 -34.3363 0.426059 -13.0915 -0.640625 1.5428 -0.94654 13.0129 -0.600357 -0.0 0.0 -0.0 14.0562 27.2172 -27.9781 -1.05064 13.0382 -57.6235 0.674534 18.4768 -0.109716 63.8916 2.13237 7.45497 1.17255 -29.2683 -17.9732 0.0 0.0 0.0 7.79332 20.6926 -7.3711 -44.1065 -0.748474 6.56336 37.3243 -0.55101 -4.6425 7.46186 -0.0 -0.0 -0.0 0.0 -0.0 1.03074 -16.5557 5.27875 -12.456 -0.309238 -1.8828 38.1491 28.8222 5.65296 -13.0564 0.0 0.0 0.0 0.0 0.0 
3366.35 719.68 -1531.78 5.41561 59.1876 -6.80027 -1.163 0.473444 -0.0692724 -1.16313 0.476892 -0.0390049 -1.16355 0.473079 0.0717192 -1.16324 0.478469 -0.00389662 -29.1656 19.6207 13.4086 -31.7244 32.9236 24.7857 -0.0 0.0 -0.0 2.45073 22.8973 6.05337 -25.3526 -0.208222 72.145 1.34156 -33.605 0.405121 -12.6753 -0.614894 1.49616 -1.03081 13.4947 -0.917268 -0.0 0.0 -0.0 14.2111 28.2183 -28.2013 1.25467 14.3058 -57.9 0.742742 20.2002 -0.132305 63.9047 2.13361 7.45609 1.04776 -28.7678 -17.1242 0.0 0.0 0.0 9.08236 18.5652 -8.87276 -44.3795 -0.768633 6.6002 37.4407 -0.972749 -4.65676 7.35741 -0.0 -0.0 -0.0 0.0 -0.0 0.884905 -18.3438 5.45954 -12.6242 -0.310595 -1.90856 38.2345 29.0963 5.67973 -12.4923 0.0 0.0 0.0 0.0 0.0 
3359.11 720.345 -1533.4 5.49346 58.1471 -6.75944 -1.21269 0.546485 -0.0783819 -1.21286 0.550365 -0.0434477 -1.21342 0.545531 0.0847679 -1.213 0.552072 -0.00245499 -30.3552 18.7911 14.3636 -32.6455 31.2142 25.4918 -0.0 0.0 -0.0 2.45057 23.2279 6.06575 -26.6268 0.505735 73.1784 1.25175 -31.8009 0.356594 -12.39 -0.597458 1.4641 -1.05917 13.7936 -0.962724 -0.0 0.0 -0.0 14.1673 29.0037 -27.9846 3.13067 15.4809 -58.9577 0.82891 22.3238 -0.163558 63.9268 2.13572 7.45799 0.951232 -28.6181 -16.5322 0.0 0.0 0.0 12.5874 16.7618 -11.5642 -43.729 -0.720885 6.51225 34.5373 -2.58246 -4.39802 5.02183 -0.0 -0.0 -0.0 0.0 -0.0 1.09488 -23.7858 5.8404 -11.5371 -0.300488 -1.74207 37.2418 29.4496 5.60188 -12.4216 0.0 0.0 0.0 0.0 0.0 
3356.57 721.346 -1534.51 5.12667 58.0834 -6.07545 -1.11645 0.628941 0.0207907 -1.11667 0.626343 0.0607713 -1.11614 0.595748 0.202693 -1.11566 0.620283 0.106059 -30.9789 18.2435 15.0542 -33.0532 30.0639 25.9376 -0.0 0.0 -0.0 2.18017 23.4526 5.70206 -26.7095 0.974528 73.6812 1.19094 -30.5377 0.325121 -12.1946 -0.585607 1.44208 -1.07845 14.0244 -0.981037 -0.0 0.0 -0.0 14.2339 29.5379 -28.0585 4.9767 16.4863 -59.835 0.906069 24.1721 -0.194018 63.9619 2.13906 7.46101 0.888352 -28.5784 -16.1636 0.0 0.0 0.0 15.0109 15.3862 -13.4365 -42.803 -0.654654 6.38615 32.4343 -3.86483 -4.20276 3.37591 -0.0 -0.0 -0.0 0.0 -0.0 1.36468 -27.9037 5.98573 -11.1335 -0.295932 -1.68031 36.5498 29.6416 5.54212 -12.3356 0.0 0.0 0.0 0.0 0.0 
3346.58 720.801 -1535.38 5.0634 57.3891 -5.2265 -1.08479 0.617751 -0.0786122 -1.085 0.621501 -0.0391423 -1.0856 0.613986 0.104008 -1.08507 0.622706 0.005731 -29.4225 18.3125 14.406 -31.3621 30.1616 24.7544 -0.0 0.0 -0.0 1.82265 24.1686 5.25017 -28.4919 2.22436 75.0055 1.10666 -28.731 0.283439 -11.9925 -0.573429 1.41927 -1.04305 14.1844 -0.689769 -0.0 0.0 -0.0 13.9595 28.7952 -27.5326 7.32451 17.549 -60.7872 1.03422 27.1264 -0.249507 65.1498 2.25323 7.56191 0.855135 -28.6802 -16.0052 0.0 0.0 0.0 16.025 12.2701 -14.4296 -37.12 -0.293786 5.59087 27.9472 -3.58342 -3.72022 1.83845 -0.0 -0.0 -0.0 0.0 -0.0 0.760599 -30.1607 5.92304 -10.6071 -0.289336 -1.5998 36.2161 32.9851 5.74899 -12.1409 0.0 0.0 0.0 0.0 0.0 
